<svg width="20" height="20" viewBox="0 0 20 20" fill="none" xmlns="http://www.w3.org/2000/svg">
<path fill-rule="evenodd" clip-rule="evenodd" d="M5.83203 2.50016C3.99108 2.50016 2.4987 3.99255 2.4987 5.8335V14.1668C2.4987 16.0078 3.99108 17.5002 5.83203 17.5002H14.1654C16.0063 17.5002 17.4987 16.0078 17.4987 14.1668V5.8335C17.4987 3.99255 16.0063 2.50016 14.1654 2.50016H5.83203ZM0.832031 5.8335C0.832031 3.07207 3.07061 0.833496 5.83203 0.833496H14.1654C16.9268 0.833496 19.1654 3.07207 19.1654 5.8335V14.1668C19.1654 16.9283 16.9268 19.1668 14.1654 19.1668H5.83203C3.07061 19.1668 0.832031 16.9283 0.832031 14.1668V5.8335Z" fill="black"/>
<path fill-rule="evenodd" clip-rule="evenodd" d="M10.4045 7.49108C9.88432 7.41394 9.35309 7.50279 8.88634 7.74498C8.41959 7.98716 8.04109 8.37036 7.80468 8.84006C7.56826 9.30976 7.48598 9.84205 7.56952 10.3612C7.65306 10.8804 7.89817 11.36 8.27 11.7318C8.64182 12.1036 9.12143 12.3487 9.64059 12.4323C10.1598 12.5158 10.692 12.4335 11.1617 12.1971C11.6314 11.9607 12.0146 11.5822 12.2568 11.1155C12.499 10.6487 12.5879 10.1175 12.5107 9.59733C12.432 9.06675 12.1848 8.57554 11.8055 8.19627C11.4263 7.81699 10.9351 7.56975 10.4045 7.49108ZM8.11872 6.2656C8.89664 5.86196 9.78202 5.71388 10.6489 5.84244C11.5332 5.97357 12.3519 6.38563 12.984 7.01776C13.6162 7.64988 14.0282 8.46856 14.1594 9.35285C14.2879 10.2198 14.1398 11.1052 13.7362 11.8831C13.3326 12.661 12.6939 13.2918 11.9111 13.6858C11.1282 14.0799 10.2411 14.217 9.37581 14.0778C8.51054 13.9385 7.7112 13.53 7.09149 12.9103C6.47178 12.2906 6.06325 11.4913 5.92402 10.626C5.78478 9.76072 5.92193 8.87358 6.31595 8.09074C6.70997 7.30791 7.34081 6.66925 8.11872 6.2656Z" fill="black"/>
<path fill-rule="evenodd" clip-rule="evenodd" d="M13.75 5.41683C13.75 4.95659 14.1231 4.5835 14.5833 4.5835H14.5917C15.0519 4.5835 15.425 4.95659 15.425 5.41683C15.425 5.87707 15.0519 6.25016 14.5917 6.25016H14.5833C14.1231 6.25016 13.75 5.87707 13.75 5.41683Z" fill="black"/>
</svg>
